<svg width="12" height="12" viewBox="0 0 12 12" fill="none" xmlns="http://www.w3.org/2000/svg">
<path d="M6.7031 0.9375C6.7031 0.54915 6.38832 0.234375 5.99997 0.234375C5.61165 0.234375 5.29685 0.54915 5.29685 0.9375V5.29685H0.9375C0.549178 5.29685 0.234375 5.61165 0.234375 5.99997C0.234375 6.38829 0.549178 6.7031 0.9375 6.7031H5.29685V11.0625C5.29685 11.4508 5.61165 11.7656 5.99997 11.7656C6.38832 11.7656 6.7031 11.4508 6.7031 11.0625V6.7031H11.0625C11.4508 6.7031 11.7656 6.38829 11.7656 5.99997C11.7656 5.61165 11.4508 5.29685 11.0625 5.29685H6.7031V0.9375Z" fill="black"/>
</svg>
