<svg width="13" height="12" viewBox="0 0 13 12" fill="none" xmlns="http://www.w3.org/2000/svg">
<path d="M9.88785 2.61214L11.1939 2.11776L12.5 2.61214L12.0056 1.30607L12.5 0L11.1939 0.494389L9.88785 0L10.3822 1.30607L9.88785 2.61214ZM2.87786 2.61214L4.18394 2.11776L5.49001 2.61214L4.99562 1.30607L5.49001 0L4.18394 0.494389L2.87786 0L3.37225 1.30607L2.87786 2.61214ZM12.5 6.95096L11.2013 7.43797L9.88785 6.95096L10.3822 8.25703L9.88785 9.5631L11.1939 9.06872L12.5 9.5631L12.013 8.24965L12.5 6.95096ZM9.8731 4.19124L8.30876 2.6269C8.02098 2.33912 7.55611 2.33912 7.26833 2.6269L0.715834 9.1794C0.428055 9.46718 0.428055 9.93205 0.715834 10.2198L2.28017 11.7842C2.56795 12.0719 3.03282 12.0719 3.3206 11.7842L9.8731 5.23167C10.1609 4.94389 10.1609 4.47902 9.8731 4.19124ZM2.78932 10.7511L1.74889 9.71068L6.33121 5.12836L7.37164 6.16879L2.78932 10.7511Z" fill="black"/>
</svg>
