<svg width="18" height="16" viewBox="0 0 18 16" fill="none" xmlns="http://www.w3.org/2000/svg">
<path d="M12.375 1.8125H5.625V5.75V7.15625H12.375V5.75V1.8125ZM12.375 8.84375H5.625V10.25V14.1875H12.375V10.25V8.84375ZM2.25 14.1875H3.9375V11.0938H1.6875V13.625C1.6875 13.9344 1.94062 14.1875 2.25 14.1875ZM1.6875 9.40625H3.9375V6.59375H1.6875V9.40625ZM3.9375 1.8125H2.25C1.94062 1.8125 1.6875 2.06563 1.6875 2.375V4.90625H3.9375V1.8125ZM14.0625 11.0938V14.1875H15.75C16.0594 14.1875 16.3125 13.9344 16.3125 13.625V11.0938H14.0625ZM14.0625 9.40625H16.3125V6.59375H14.0625V9.40625ZM14.0625 4.90625H16.3125V2.375C16.3125 2.06563 16.0594 1.8125 15.75 1.8125H14.0625V4.90625ZM15.75 15.875H2.25C1.00898 15.875 0 14.866 0 13.625V2.375C0 1.13398 1.00898 0.125 2.25 0.125H15.75C16.991 0.125 18 1.13398 18 2.375V13.625C18 14.866 16.991 15.875 15.75 15.875Z" fill="black"/>
</svg>
