<svg width="18" height="12" viewBox="0 0 18 12" fill="none" xmlns="http://www.w3.org/2000/svg">
<g id="Group">
<path id="Vector" d="M7.938 9.458L12.188 5.208L11.125 4.146L7.938 7.333L6.521 5.917L5.458 6.979L7.938 9.458ZM4 12C2.88867 12 1.94433 11.611 1.167 10.833C0.389 10.0557 0 9.11133 0 8C0 6.94467 0.361 6.03133 1.083 5.26C1.80567 4.48933 2.68767 4.06933 3.729 4C4.04833 2.81933 4.69067 1.85767 5.656 1.115C6.62133 0.371666 7.736 0 9 0C10.4307 0 11.6737 0.482667 12.729 1.448C13.7843 2.41333 14.3747 3.59733 14.5 5C15.472 5 16.2983 5.34033 16.979 6.021C17.6597 6.70167 18 7.528 18 8.5C18 9.472 17.6597 10.2983 16.979 10.979C16.2983 11.6597 15.472 12 14.5 12H4ZM4 10.5H14.5C15.0553 10.5 15.5277 10.3057 15.917 9.917C16.3057 9.52767 16.5 9.05533 16.5 8.5C16.5 7.94467 16.3057 7.47233 15.917 7.083C15.5277 6.69433 15.0553 6.5 14.5 6.5H13.125L13 5.146C12.9027 4.118 12.472 3.25333 11.708 2.552C10.944 1.85067 10.0413 1.5 9 1.5C8.11133 1.5 7.31633 1.76733 6.615 2.302C5.913 2.83667 5.43733 3.54167 5.188 4.417L4.896 5.438L3.833 5.5C3.16633 5.54133 2.611 5.80167 2.167 6.281C1.72233 6.76033 1.5 7.33333 1.5 8C1.5 8.69467 1.743 9.285 2.229 9.771C2.715 10.257 3.30533 10.5 4 10.5Z" fill="#444746"/>
</g>
</svg>
