<svg width="6" height="12" viewBox="0 0 6 12" fill="none" xmlns="http://www.w3.org/2000/svg">
<path fill-rule="evenodd" clip-rule="evenodd" d="M1.125 0.5C0.977263 0.5 0.830972 0.530485 0.694481 0.589713C0.55799 0.648942 0.433971 0.735755 0.329505 0.845195C0.225039 0.954636 0.142172 1.08456 0.0856354 1.22755C0.0290989 1.37054 0 1.5238 0 1.67857C0 1.83334 0.0290989 1.9866 0.0856354 2.12959C0.142172 2.27258 0.225039 2.40251 0.329505 2.51195C0.433971 2.62139 0.55799 2.7082 0.694481 2.76743C0.830972 2.82666 0.977263 2.85714 1.125 2.85714C1.42337 2.85714 1.70952 2.73297 1.9205 2.51195C2.13147 2.29092 2.25 1.99115 2.25 1.67857C2.25 1.36599 2.13147 1.06622 1.9205 0.845195C1.70952 0.62417 1.42337 0.5 1.125 0.5ZM4.875 0.5C4.72726 0.5 4.58097 0.530485 4.44448 0.589713C4.30799 0.648942 4.18397 0.735755 4.0795 0.845195C3.97504 0.954636 3.89217 1.08456 3.83564 1.22755C3.7791 1.37054 3.75 1.5238 3.75 1.67857C3.75 1.83334 3.7791 1.9866 3.83564 2.12959C3.89217 2.27258 3.97504 2.40251 4.0795 2.51195C4.18397 2.62139 4.30799 2.7082 4.44448 2.76743C4.58097 2.82666 4.72726 2.85714 4.875 2.85714C5.17337 2.85714 5.45952 2.73297 5.6705 2.51195C5.88147 2.29092 6 1.99115 6 1.67857C6 1.36599 5.88147 1.06622 5.6705 0.845195C5.45952 0.62417 5.17337 0.5 4.875 0.5ZM0 6C-3.11333e-09 5.84523 0.0290989 5.69197 0.0856354 5.54898C0.142172 5.40599 0.225039 5.27606 0.329505 5.16662C0.433971 5.05718 0.55799 4.97037 0.694481 4.91114C0.830972 4.85191 0.977263 4.82143 1.125 4.82143C1.27274 4.82143 1.41903 4.85191 1.55552 4.91114C1.69201 4.97037 1.81603 5.05718 1.9205 5.16662C2.02496 5.27606 2.10783 5.40599 2.16436 5.54898C2.2209 5.69197 2.25 5.84523 2.25 6C2.25 6.31258 2.13147 6.61235 1.9205 6.83338C1.70952 7.0544 1.42337 7.17857 1.125 7.17857C0.826631 7.17857 0.540483 7.0544 0.329505 6.83338C0.118526 6.61235 6.28765e-09 6.31258 0 6ZM1.125 9.14286C0.826631 9.14286 0.540483 9.26703 0.329505 9.48805C0.118526 9.70908 0 10.0089 0 10.3214C0 10.634 0.118526 10.9338 0.329505 11.1548C0.540483 11.3758 0.826631 11.5 1.125 11.5C1.42337 11.5 1.70952 11.3758 1.9205 11.1548C2.13147 10.9338 2.25 10.634 2.25 10.3214C2.25 10.0089 2.13147 9.70908 1.9205 9.48805C1.70952 9.26703 1.42337 9.14286 1.125 9.14286ZM3.75 6C3.75 5.68742 3.86853 5.38765 4.0795 5.16662C4.29048 4.9456 4.57663 4.82143 4.875 4.82143C5.17337 4.82143 5.45952 4.9456 5.6705 5.16662C5.88147 5.38765 6 5.68742 6 6C6 6.31258 5.88147 6.61235 5.6705 6.83338C5.45952 7.0544 5.17337 7.17857 4.875 7.17857C4.57663 7.17857 4.29048 7.0544 4.0795 6.83338C3.86853 6.61235 3.75 6.31258 3.75 6ZM4.875 9.14286C4.57663 9.14286 4.29048 9.26703 4.0795 9.48805C3.86853 9.70908 3.75 10.0089 3.75 10.3214C3.75 10.634 3.86853 10.9338 4.0795 11.1548C4.29048 11.3758 4.57663 11.5 4.875 11.5C5.17337 11.5 5.45952 11.3758 5.6705 11.1548C5.88147 10.9338 6 10.634 6 10.3214C6 10.0089 5.88147 9.70908 5.6705 9.48805C5.45952 9.26703 5.17337 9.14286 4.875 9.14286Z" fill="#2ABA8A"/>
</svg>
