<svg width="22" height="22" viewBox="0 0 22 22" fill="none" xmlns="http://www.w3.org/2000/svg">
<path d="M16.75 9.49999C16.0596 9.49999 15.5 8.94033 15.5 8.24998C15.5 7.55962 16.0596 7 16.75 7C17.4403 7 18 7.55962 18 8.24998C18 8.94033 17.4403 9.49999 16.75 9.49999Z" fill="#CECECE"/>
<path d="M11.25 9.49999C10.5596 9.49999 10 8.94033 10 8.24998C10 7.55962 10.5596 7 11.25 7C11.9403 7 12.5 7.55962 12.5 8.24998C12.5 8.94033 11.9403 9.49999 11.25 9.49999Z" fill="#CECECE"/>
<path d="M4.50001 8.24998C4.50001 8.94033 5.05963 9.49999 5.74999 9.49999C6.44034 9.49999 7 8.94033 7 8.24998C7 7.55962 6.44034 7 5.74999 7C5.05963 7 4.50001 7.55962 4.50001 8.24998Z" fill="#CECECE"/>
<path d="M16.75 15C16.0596 15 15.5 14.4403 15.5 13.75C15.5 13.0596 16.0596 12.5 16.75 12.5C17.4403 12.5 18 13.0596 18 13.75C18 14.4403 17.4403 15 16.75 15Z" fill="#CECECE"/>
<path d="M10 13.75C10 14.4403 10.5596 15 11.25 15C11.9403 15 12.5 14.4403 12.5 13.75C12.5 13.0596 11.9403 12.5 11.25 12.5C10.5596 12.5 10 13.0596 10 13.75Z" fill="#CECECE"/>
<path d="M5.74999 15C5.05963 15 4.50001 14.4403 4.50001 13.75C4.50001 13.0596 5.05963 12.5 5.74999 12.5C6.44034 12.5 7 13.0596 7 13.75C7 14.4403 6.44034 15 5.74999 15Z" fill="#CECECE"/>
</svg>
