<svg width="6" height="11" viewBox="0 0 6 11" fill="none" xmlns="http://www.w3.org/2000/svg">
<path fill-rule="evenodd" clip-rule="evenodd" d="M1.125 0C0.977263 -3.26158e-09 0.830972 0.0304845 0.694481 0.0897133C0.55799 0.148942 0.433971 0.235755 0.329505 0.345195C0.225039 0.454636 0.142172 0.584561 0.0856354 0.727552C0.0290989 0.870543 0 1.0238 0 1.17857C0 1.33334 0.0290989 1.4866 0.0856354 1.62959C0.142172 1.77258 0.225039 1.90251 0.329505 2.01195C0.433971 2.12139 0.55799 2.2082 0.694481 2.26743C0.830972 2.32666 0.977263 2.35714 1.125 2.35714C1.42337 2.35714 1.70952 2.23297 1.9205 2.01195C2.13147 1.79092 2.25 1.49115 2.25 1.17857C2.25 0.865995 2.13147 0.56622 1.9205 0.345195C1.70952 0.12417 1.42337 6.58706e-09 1.125 0ZM4.875 0C4.72726 -3.26158e-09 4.58097 0.0304845 4.44448 0.0897133C4.30799 0.148942 4.18397 0.235755 4.0795 0.345195C3.97504 0.454636 3.89217 0.584561 3.83564 0.727552C3.7791 0.870543 3.75 1.0238 3.75 1.17857C3.75 1.33334 3.7791 1.4866 3.83564 1.62959C3.89217 1.77258 3.97504 1.90251 4.0795 2.01195C4.18397 2.12139 4.30799 2.2082 4.44448 2.26743C4.58097 2.32666 4.72726 2.35714 4.875 2.35714C5.17337 2.35714 5.45952 2.23297 5.6705 2.01195C5.88147 1.79092 6 1.49115 6 1.17857C6 0.865995 5.88147 0.56622 5.6705 0.345195C5.45952 0.12417 5.17337 6.58706e-09 4.875 0ZM0 5.5C-3.11333e-09 5.34523 0.0290989 5.19197 0.0856354 5.04898C0.142172 4.90599 0.225039 4.77606 0.329505 4.66662C0.433971 4.55718 0.55799 4.47037 0.694481 4.41114C0.830972 4.35191 0.977263 4.32143 1.125 4.32143C1.27274 4.32143 1.41903 4.35191 1.55552 4.41114C1.69201 4.47037 1.81603 4.55718 1.9205 4.66662C2.02496 4.77606 2.10783 4.90599 2.16436 5.04898C2.2209 5.19197 2.25 5.34523 2.25 5.5C2.25 5.81258 2.13147 6.11235 1.9205 6.33338C1.70952 6.5544 1.42337 6.67857 1.125 6.67857C0.826631 6.67857 0.540483 6.5544 0.329505 6.33338C0.118526 6.11235 6.28765e-09 5.81258 0 5.5ZM1.125 8.64286C0.826631 8.64286 0.540483 8.76703 0.329505 8.98805C0.118526 9.20908 0 9.50885 0 9.82143C0 10.134 0.118526 10.4338 0.329505 10.6548C0.540483 10.8758 0.826631 11 1.125 11C1.42337 11 1.70952 10.8758 1.9205 10.6548C2.13147 10.4338 2.25 10.134 2.25 9.82143C2.25 9.50885 2.13147 9.20908 1.9205 8.98805C1.70952 8.76703 1.42337 8.64286 1.125 8.64286ZM3.75 5.5C3.75 5.18742 3.86853 4.88765 4.0795 4.66662C4.29048 4.4456 4.57663 4.32143 4.875 4.32143C5.17337 4.32143 5.45952 4.4456 5.6705 4.66662C5.88147 4.88765 6 5.18742 6 5.5C6 5.81258 5.88147 6.11235 5.6705 6.33338C5.45952 6.5544 5.17337 6.67857 4.875 6.67857C4.57663 6.67857 4.29048 6.5544 4.0795 6.33338C3.86853 6.11235 3.75 5.81258 3.75 5.5ZM4.875 8.64286C4.57663 8.64286 4.29048 8.76703 4.0795 8.98805C3.86853 9.20908 3.75 9.50885 3.75 9.82143C3.75 10.134 3.86853 10.4338 4.0795 10.6548C4.29048 10.8758 4.57663 11 4.875 11C5.17337 11 5.45952 10.8758 5.6705 10.6548C5.88147 10.4338 6 10.134 6 9.82143C6 9.50885 5.88147 9.20908 5.6705 8.98805C5.45952 8.76703 5.17337 8.64286 4.875 8.64286Z" fill="#3D3D3D"/>
</svg>
