<svg width="42" height="42" viewBox="0 0 42 42" fill="none" xmlns="http://www.w3.org/2000/svg">
<path d="M32.9806 37.4309V14.175L23.4486 14.134C22.9031 14.1299 22.4601 13.6869 22.4601 13.1414V3.62579H8.49915V37.4268H32.9806V37.4309Z" fill="#EA4D20"/>
<path d="M24.4495 5.85706V12.1489L31.4754 12.1776L24.4495 5.85706Z" fill="white"/>
<path d="M7.96108 14.9502C7.41148 14.9502 6.96851 14.5031 6.96851 13.9576V3.62576C6.96851 3.07615 7.41148 2.63318 7.96108 2.63318H23.4527C24.0023 2.63318 24.4453 3.08025 24.4453 3.62576C24.4453 4.17126 24.0023 4.61834 23.4527 4.61834H8.95366V13.9535C8.95366 14.5031 8.51069 14.9502 7.96108 14.9502Z" fill="#D63306"/>
<path d="M34.9576 13.0553V13.0348V13.0102C34.9576 13.0019 34.9576 12.9896 34.9535 12.9814C34.9535 12.9732 34.9535 12.9691 34.9494 12.9609C34.9494 12.9486 34.9453 12.9404 34.9453 12.9281C34.9453 12.924 34.9453 12.9158 34.9412 12.9117C34.9371 12.8994 34.9371 12.8871 34.933 12.8789C34.933 12.8748 34.9289 12.8666 34.9289 12.8625C34.9248 12.8502 34.9248 12.8379 34.9207 12.8297C34.9207 12.8256 34.9166 12.8174 34.9166 12.8133C34.9125 12.801 34.9084 12.7928 34.9043 12.7805C34.9043 12.7764 34.9002 12.7682 34.9002 12.7641C34.8961 12.7559 34.892 12.7435 34.8879 12.7353C34.8838 12.7271 34.8838 12.723 34.8797 12.7148L34.8674 12.6902L34.8551 12.6656C34.8551 12.6615 34.851 12.6574 34.851 12.6533C34.8386 12.6287 34.8263 12.6082 34.814 12.5836C34.814 12.5795 34.8099 12.5795 34.8099 12.5754C34.8017 12.5631 34.7976 12.5549 34.7894 12.5467C34.7853 12.5426 34.7853 12.5385 34.7812 12.5344C34.773 12.5262 34.7689 12.518 34.7607 12.5057C34.7566 12.5016 34.7525 12.4975 34.7484 12.4893C34.7402 12.481 34.7361 12.4728 34.7279 12.4646C34.7238 12.4605 34.7197 12.4523 34.7115 12.4482C34.7074 12.44 34.6992 12.4359 34.6951 12.4277L34.6705 12.4031L34.6582 12.3908C34.6459 12.3785 34.6336 12.3662 34.6172 12.3539L24.109 2.88749C23.8177 2.62499 23.3994 2.55937 23.0385 2.71933C22.6816 2.87929 22.4478 3.23613 22.4478 3.62577V13.1373C22.4478 13.6828 22.8908 14.1299 23.4363 14.1299L32.9683 14.1709V37.4268H8.94548V13.7111C8.94548 13.1615 8.50251 12.7185 7.95291 12.7185C7.4033 12.7185 6.96033 13.1656 6.96033 13.7111V38.4234C6.96033 38.973 7.4033 39.416 7.95291 39.416H33.965C34.5146 39.416 34.9576 38.9689 34.9576 38.4234V13.0881V13.0553ZM24.4371 12.1488V5.85702L31.4672 12.1775L24.4371 12.1488Z" fill="#D63306"/>
<path d="M13 24C13 23.4477 13.4477 23 14 23H27C27.5523 23 28 23.4477 28 24C28 24.5523 27.5523 25 27 25H14C13.4477 25 13 24.5523 13 24Z" fill="white"/>
<path d="M13 29C13 28.4477 13.4477 28 14 28H27C27.5523 28 28 28.4477 28 29C28 29.5523 27.5523 30 27 30H14C13.4477 30 13 29.5523 13 29Z" fill="white"/>
<path d="M13 19C13 18.4477 13.4477 18 14 18H27C27.5523 18 28 18.4477 28 19C28 19.5523 27.5523 20 27 20H14C13.4477 20 13 19.5523 13 19Z" fill="white"/>
</svg>
