<svg width="33" height="32" viewBox="0 0 33 32" fill="none" xmlns="http://www.w3.org/2000/svg">
<path d="M30.75 3.91992V27.9199V29.9199H28.75H8.75003H6.75003V27.9199V24.9199H8.75003V27.9199H28.75V3.91992H8.75003V6.91992H6.75003V3.91992V1.91992H8.75003H28.75H30.75V3.91992ZM19.75 13.9199H26.75V15.9199H19.75V13.9199ZM19.75 9.91992H26.75V11.9199H19.75V9.91992ZM19.75 17.9199H26.75V19.9199H19.75V17.9199Z" fill="#E64A19"/>
<path fill-rule="evenodd" clip-rule="evenodd" d="M18.67 7.83992H2.75V23.8479H18.67V7.83992ZM10.6804 17.0416H10.1238V18.8799H8.96958V13.836H10.6337C11.2399 13.836 11.6346 13.8609 11.8256 13.9119C12.1234 13.9899 12.3732 14.1599 12.573 14.4195C12.7735 14.6801 12.8731 15.0149 12.8731 15.4205C12.8731 15.7329 12.816 15.998 12.7003 16.2151C12.5856 16.4306 12.4385 16.6011 12.2598 16.7254C12.0836 16.8479 11.9034 16.9296 11.7175 16.9701C11.4761 17.0178 11.1309 17.0416 10.6804 17.0416ZM10.1238 14.8306H10.5141C10.8634 14.8306 11.0959 14.8416 11.2065 14.8626C11.3483 14.8881 11.4634 14.9509 11.5548 15.052C11.6441 15.1511 11.6889 15.2767 11.6889 15.4338C11.6889 15.5611 11.6567 15.6706 11.5924 15.7647C11.528 15.859 11.4392 15.9281 11.3243 15.9729C11.2065 16.0188 10.9549 16.0435 10.5772 16.0435H10.1238V14.8306ZM5.58251 17.0416H6.13911C6.58966 17.0416 6.93485 17.0178 7.17622 16.9701C7.36209 16.9296 7.54234 16.8479 7.71868 16.7254C7.89741 16.6011 8.0443 16.4306 8.15902 16.2151C8.27477 15.998 8.33196 15.7329 8.33196 15.4205C8.33196 15.0149 8.23222 14.6801 8.03171 14.4195C7.83205 14.1599 7.58234 13.9899 7.28447 13.9119C7.09332 13.8609 6.6986 13.836 6.09247 13.836H4.4283V18.8799H5.58251V17.0416ZM5.97281 14.8306H5.58251V16.0435H6.03596C6.41366 16.0435 6.66524 16.0188 6.78302 15.9729C6.89809 15.9281 6.98677 15.859 7.05128 15.7647C7.11545 15.6706 7.14779 15.5611 7.14779 15.4338C7.14779 15.2767 7.10285 15.1511 7.01349 15.052C6.92209 14.9509 6.80719 14.8881 6.66524 14.8626C6.5546 14.8416 6.32226 14.8306 5.97281 14.8306ZM17.205 14.8306H15.7621V18.8799H14.6079V14.8307H13.1617V13.836H17.205V14.8306Z" fill="#E64A19"/>
</svg>
