<svg width="33" height="33" viewBox="0 0 33 33" fill="none" xmlns="http://www.w3.org/2000/svg">
<path d="M30.248 4.16846V28.1685V30.1685H28.248H8.24808H6.24808V28.1685V25.1685H8.24808V28.1685H28.248V4.16846H8.24808V7.16846H6.24808V4.16846V2.16846H8.24808H28.248H30.248V4.16846ZM19.2481 14.1685H26.248V16.1685H19.2481V14.1685ZM19.2481 10.1685H26.248V12.1685H19.2481V10.1685ZM19.2481 18.1685H26.248V20.1685H19.2481V18.1685Z" fill="#DC2E1B"/>
<path fill-rule="evenodd" clip-rule="evenodd" d="M2.24805 8.08846H18.168V24.0965H2.24805V8.08846ZM14.234 18.6671H14.2334C13.4262 18.6122 12.6579 18.2998 12.0414 17.7758C10.8287 18.0425 9.67272 18.4278 8.51805 18.9025C7.59938 20.5365 6.73938 21.3685 5.99938 21.3685C5.85072 21.3685 5.67272 21.3398 5.55472 21.2485C5.24405 21.1031 5.04672 20.7891 5.05205 20.4465C5.05205 20.1791 5.11005 19.4358 7.92538 18.2198C8.5642 17.0445 9.08989 15.8112 9.49538 14.5365C9.14072 13.8245 8.37005 12.0711 8.90205 11.1805C9.08072 10.8531 9.43472 10.6765 9.82138 10.7051C9.97089 10.7067 10.1181 10.7423 10.2517 10.8093C10.3854 10.8763 10.502 10.9729 10.5927 11.0918C10.9767 11.6271 10.946 12.7545 10.4447 14.4171C10.9184 15.307 11.5389 16.1105 12.28 16.7938C12.9034 16.6745 13.5234 16.5858 14.1467 16.5858C15.538 16.6145 15.746 17.2691 15.716 17.6538C15.716 18.6671 14.736 18.6671 14.234 18.6671Z" fill="#DC2E1B"/>
<path fill-rule="evenodd" clip-rule="evenodd" d="M5.71872 20.7018C6.04538 20.4018 6.51005 20.1698 7.05205 20.0351C6.75605 20.3351 6.34738 20.5645 5.82872 20.6798L5.71872 20.7018ZM10.1887 12.0351C10.4667 12.4711 10.4494 12.9378 10.1387 13.3685C9.76005 12.9578 9.60072 12.4951 9.81472 12.0591C9.86472 12.0351 9.97472 12.0351 10.0307 12.0351H10.1887ZM9.94138 16.0351C10.262 16.5411 10.6347 17.0105 11.052 17.4351H10.9674L10.9927 17.4631C10.3527 17.6165 9.72272 17.8051 9.10605 18.0351V17.9778L9.05205 18.0051C9.35904 17.3705 9.6371 16.7223 9.88538 16.0625L9.91338 16.0925L9.94138 16.0351ZM14.41 17.2151C14.9434 17.2151 15.05 17.3658 15.052 17.4511C14.892 17.5111 14.7067 17.5391 14.5187 17.5111C14.252 17.4825 13.9854 17.4231 13.7187 17.2745C13.9587 17.2145 14.17 17.2145 14.41 17.2145V17.2151Z" fill="#DC2E1B"/>
</svg>
