<svg width="22" height="22" viewBox="0 0 22 22" fill="none" xmlns="http://www.w3.org/2000/svg">
<path d="M1.27322 0.5C1.12734 0.500834 0.983053 0.531698 0.848584 0.59083C0.714116 0.649962 0.592106 0.736203 0.48952 0.844631C0.386934 0.953058 0.305782 1.08155 0.250696 1.22276C0.195611 1.36398 0.167672 1.51515 0.168474 1.66766V20.3323C0.168474 20.9767 0.662992 21.5 1.27322 21.5H20.0637C20.6727 21.5 21.1684 20.9779 21.1684 20.3323V5.16681C21.1697 4.85903 21.0541 4.56331 20.847 4.34461C20.6398 4.1259 20.3581 4.00211 20.0637 4.00042H11.3865C11.1621 4.00046 10.9405 3.94866 10.7375 3.84872C10.5345 3.74878 10.3552 3.60318 10.2123 3.42233L8.36091 1.07937C8.21828 0.898451 8.03918 0.752704 7.83641 0.652549C7.63364 0.552393 7.41222 0.500302 7.18795 0.5H1.27322ZM10.6703 7.5989C10.7872 7.59849 10.903 7.6225 11.011 7.66951C11.1189 7.71652 11.2167 7.78559 11.2988 7.87267L14.7665 11.4979C14.9255 11.6724 15.0129 11.9049 15.01 12.1458C15.0072 12.3867 14.9144 12.617 14.7515 12.7873C14.5885 12.9577 14.3683 13.0547 14.1378 13.0577C13.9074 13.0606 13.6849 12.9692 13.518 12.8031L11.5534 10.7479V16.2258C11.5534 16.4706 11.4603 16.7055 11.2947 16.8786C11.1291 17.0517 10.9045 17.149 10.6703 17.149C10.4361 17.149 10.2115 17.0517 10.0459 16.8786C9.88026 16.7055 9.78722 16.4706 9.78722 16.2258V10.7479L7.82254 12.8031C7.65488 12.9648 7.43384 13.0524 7.20574 13.0476C6.97764 13.0428 6.76018 12.9458 6.59893 12.7771C6.43769 12.6084 6.34517 12.3809 6.34076 12.1425C6.33635 11.904 6.4204 11.673 6.57529 11.4979L10.0467 7.86884C10.1285 7.78319 10.2257 7.71525 10.3328 7.66893C10.4398 7.62261 10.5545 7.59881 10.6703 7.5989Z" fill="white"/>
</svg>
