<svg width="33" height="32" viewBox="0 0 33 32" fill="none" xmlns="http://www.w3.org/2000/svg">
<path fill-rule="evenodd" clip-rule="evenodd" d="M2.25 24V8H18.25V24H2.25ZM30.25 30V28V4V2H28.25H8.25H6.25V4V7H8.25V4H28.25V28H8.25V25H6.25V28V30H8.25H28.25H30.25ZM26.25 14H19.25V16H26.25V14ZM26.25 10H19.25V12H26.25V10ZM26.25 18H19.25V20H26.25V18ZM11.2167 19.7165H12.8714L15.6289 13.5198H13.8607C13.1308 15.353 12.6118 16.667 12.3034 17.4781C12.2225 17.689 12.1575 17.9323 12.0926 18.2082C12.0578 18.0897 12.026 17.9773 11.9959 17.8708C11.9558 17.7293 11.9188 17.5983 11.8818 17.4781C11.8167 17.1534 11.4436 15.8395 10.7462 13.5198H8.978C8.47512 15.353 8.06968 16.667 7.79384 17.4781C7.71272 17.689 7.64776 17.9323 7.58296 18.2082C7.54856 18.091 7.51706 17.9796 7.48721 17.8741C7.4468 17.7313 7.40944 17.5993 7.37208 17.4781C7.12872 16.8939 6.67448 15.5638 5.97704 13.5198H4.20872L6.77192 19.7166H8.42632C8.52425 19.4149 8.617 19.1286 8.70471 18.858C9.15453 17.4698 9.47179 16.4908 9.67544 15.9206C9.75656 15.7584 9.8052 15.5312 9.83768 15.2392C9.87016 15.1258 9.88648 15.0445 9.88648 14.9958H9.93512C9.93512 15.1579 9.9676 15.4338 10.0324 15.8069C10.0649 15.8555 10.081 15.888 10.081 15.9205C10.2798 16.5469 10.6223 17.7056 11.1222 19.3967L11.2167 19.7165Z" fill="#185ABD"/>
</svg>
