<svg width="56" height="56" viewBox="0 0 56 56" fill="none" xmlns="http://www.w3.org/2000/svg">
<rect x="4" y="4" width="48" height="48" rx="24" fill="#D1FADF"/>
<rect x="4" y="4" width="48" height="48" rx="24" stroke="#ECFDF3" stroke-width="8"/>
<g clip-path="url(#clip0_2203_36244)">
<path d="M23.375 19.4375C23.375 19.4414 23.3789 19.4609 23.3984 19.4961C23.4219 19.543 23.4766 19.6172 23.582 19.7109C23.5977 19.7227 23.6133 19.7383 23.6289 19.75C22.8984 19.7656 22.1875 19.8164 21.5039 19.9102V19.4375C21.5039 18.7344 21.8828 18.1719 22.3281 17.7695C22.7734 17.3672 23.3711 17.0469 24.0273 16.7969C25.3438 16.293 27.1055 16 29 16C30.8945 16 32.6562 16.293 33.9727 16.793C34.6289 17.043 35.2266 17.3633 35.6719 17.7656C36.1172 18.168 36.5 18.7344 36.5 19.4375V23.5V27.5625C36.5 28.2656 36.1211 28.8281 35.6758 29.2305C35.2305 29.6328 34.6328 29.9531 33.9766 30.2031C33.6016 30.3477 33.1914 30.4727 32.7539 30.5781V28.6406C32.9531 28.582 33.1367 28.5195 33.3086 28.4531C33.8398 28.25 34.207 28.0312 34.4219 27.8398C34.5273 27.7461 34.582 27.6719 34.6055 27.625C34.6289 27.582 34.6289 27.5664 34.6289 27.5664V25.8594C34.4219 25.9609 34.2031 26.0547 33.9766 26.1406C33.6016 26.2852 33.1914 26.4102 32.7539 26.5156V24.5781C32.9531 24.5195 33.1367 24.457 33.3086 24.3906C33.8398 24.1875 34.207 23.9688 34.4219 23.7773C34.5273 23.6836 34.582 23.6094 34.6055 23.5625C34.625 23.5273 34.6289 23.5078 34.6289 23.5039V21.7969C34.4219 21.8984 34.2031 21.9922 33.9766 22.0781C33.4414 22.2812 32.8281 22.4531 32.168 22.582C31.9688 22.2891 31.7383 22.0391 31.5117 21.8359C31.1172 21.4805 30.6602 21.1914 30.1836 20.9531C31.4219 20.8633 32.5 20.6328 33.3086 20.3242C33.8398 20.1211 34.207 19.9023 34.4219 19.7109C34.5273 19.6172 34.582 19.543 34.6055 19.4961C34.625 19.4609 34.6289 19.4414 34.6289 19.4375C34.6289 19.4375 34.6289 19.418 34.6055 19.3789C34.582 19.332 34.5273 19.2578 34.4219 19.1641C34.207 18.9688 33.8398 18.75 33.3086 18.5508C32.25 18.1445 30.7266 17.875 29 17.875C27.2734 17.875 25.75 18.1445 24.6953 18.5469C24.1641 18.75 23.7969 18.9688 23.582 19.1602C23.4766 19.2539 23.4219 19.3281 23.3984 19.375C23.375 19.418 23.375 19.4336 23.375 19.4336V19.4375ZM18.375 24.4375C18.375 24.4414 18.3789 24.4609 18.3984 24.4961C18.4219 24.543 18.4766 24.6172 18.582 24.7109C18.7969 24.9062 19.1641 25.125 19.6953 25.3242C20.75 25.7266 22.2734 25.9961 24 25.9961C25.7266 25.9961 27.25 25.7266 28.3047 25.3242C28.8359 25.1211 29.2031 24.9023 29.418 24.7109C29.5234 24.6172 29.5781 24.543 29.6016 24.4961C29.6211 24.4609 29.625 24.4414 29.625 24.4375C29.625 24.4375 29.625 24.418 29.6016 24.3789C29.5781 24.332 29.5234 24.2578 29.418 24.1641C29.2031 23.9688 28.8359 23.75 28.3047 23.5508C27.25 23.1484 25.7266 22.8789 24 22.8789C22.2734 22.8789 20.75 23.1484 19.6953 23.5508C19.1641 23.7539 18.7969 23.9727 18.582 24.1641C18.4766 24.2578 18.4219 24.332 18.3984 24.3789C18.375 24.4219 18.375 24.4375 18.375 24.4375ZM16.5 24.4375C16.5 23.7344 16.8789 23.1719 17.3242 22.7695C17.7695 22.3672 18.3672 22.0469 19.0234 21.7969C20.3438 21.293 22.1055 21 24 21C25.8945 21 27.6562 21.293 28.9727 21.793C29.6289 22.043 30.2266 22.3633 30.6719 22.7656C31.1172 23.168 31.5 23.7344 31.5 24.4375V28.5V32.5625C31.5 33.2656 31.1211 33.8281 30.6758 34.2305C30.2305 34.6328 29.6328 34.9531 28.9766 35.2031C27.6562 35.707 25.8945 36 24 36C22.1055 36 20.3438 35.707 19.0273 35.207C18.3711 34.957 17.7773 34.6367 17.3281 34.2344C16.8789 33.832 16.5 33.2656 16.5 32.5625V28.5V24.4375ZM29.625 28.5V26.7969C29.418 26.8984 29.1992 26.9922 28.9727 27.0781C27.6562 27.582 25.8945 27.875 24 27.875C22.1055 27.875 20.3438 27.582 19.0273 27.082C18.8008 26.9961 18.582 26.9023 18.375 26.8008V28.5C18.375 28.5039 18.3789 28.5234 18.3984 28.5586C18.4219 28.6055 18.4766 28.6797 18.582 28.7734C18.7969 28.9688 19.1641 29.1875 19.6953 29.3867C20.75 29.7891 22.2734 30.0586 24 30.0586C25.7266 30.0586 27.25 29.7891 28.3047 29.3867C28.8359 29.1836 29.2031 28.9648 29.418 28.7734C29.5234 28.6797 29.5781 28.6055 29.6016 28.5586C29.6211 28.5234 29.625 28.5039 29.625 28.5ZM19.0273 31.1445C18.8008 31.0586 18.582 30.9648 18.375 30.8633V32.5625C18.375 32.5625 18.375 32.582 18.3984 32.6211C18.4219 32.668 18.4766 32.7422 18.582 32.8359C18.7969 33.0312 19.1641 33.25 19.6953 33.4492C20.75 33.8516 22.2734 34.1211 24 34.1211C25.7266 34.1211 27.25 33.8516 28.3047 33.4492C28.8359 33.2461 29.2031 33.0273 29.418 32.8359C29.5234 32.7422 29.5781 32.668 29.6016 32.6211C29.625 32.5781 29.625 32.5625 29.625 32.5625V30.8594C29.418 30.9609 29.1992 31.0547 28.9727 31.1406C27.6562 31.6445 25.8945 31.9375 24 31.9375C22.1055 31.9375 20.3438 31.6445 19.0273 31.1445Z" fill="black"/>
</g>
<defs>
<clipPath id="clip0_2203_36244">
<rect width="20" height="20" fill="white" transform="translate(16.5 16)"/>
</clipPath>
</defs>
</svg>
