<svg width="44" height="44" viewBox="0 0 44 44" fill="none" xmlns="http://www.w3.org/2000/svg">
<path d="M22 44C9.85 44 0 34.15 0 22C0 9.85 9.85 0 22 0C34.15 0 44 9.85 44 22C44 34.15 34.15 44 22 44ZM19.636 28.714L12.56 21.64C12.2757 21.375 11.8996 21.2308 11.511 21.2377C11.1224 21.2445 10.7516 21.4019 10.4768 21.6768C10.2019 21.9516 10.0445 22.3224 10.0377 22.711C10.0308 23.0996 10.175 23.4757 10.44 23.76L18.63 31.952C18.6353 31.9574 18.6406 31.9627 18.646 31.968L18.658 31.978C18.8191 32.1391 19.0148 32.2613 19.2302 32.3354C19.4456 32.4096 19.6751 32.4337 19.9012 32.4059C20.1273 32.3782 20.3442 32.2993 20.5352 32.1752C20.7263 32.0512 20.8866 31.8852 21.004 31.69L36.822 13.896C37.0862 13.5984 37.2213 13.2081 37.1977 12.8109C37.174 12.4137 36.9936 12.0422 36.696 11.778C36.3984 11.5138 36.0081 11.3787 35.6109 11.4023C35.2137 11.426 34.8422 11.6064 34.578 11.904L19.636 28.714Z" fill="#2ABA8A"/>
</svg>
