<svg width="26" height="33" viewBox="0 0 26 33" fill="none" xmlns="http://www.w3.org/2000/svg">
<path d="M18.2828 32.0681H8.07802C7.28362 32.0681 6.63802 31.4225 6.63802 30.6281C6.63802 29.8337 7.28362 29.1881 8.07802 29.1881H18.2828C19.0772 29.1881 19.7228 29.8337 19.7228 30.6281C19.7228 31.4225 19.0772 32.0681 18.2828 32.0681ZM13.4396 0.100109C6.67403 -0.120691 0.926025 5.43771 0.926025 12.2081C0.926025 16.5497 3.21082 20.3537 6.64043 22.4921V25.2497C6.64043 26.4065 7.57882 27.3425 8.73322 27.3425H17.5508C18.7076 27.3425 19.6436 26.4041 19.6436 25.2497V22.3601C22.9604 20.1977 25.154 16.4585 25.154 12.2057C25.1564 5.65131 19.946 0.311309 13.4396 0.100109ZM9.82523 8.17851C9.78683 8.21691 7.90522 10.0361 7.80202 12.7433C7.77082 13.5833 7.07723 14.2433 6.24443 14.2433H6.18443C5.77082 14.227 5.38059 14.0473 5.09936 13.7436C4.81814 13.4398 4.66891 13.0369 4.68443 12.6233C4.84043 8.57691 7.58603 5.99931 7.70363 5.89131C8.00804 5.61093 8.41127 5.4628 8.82479 5.47945C9.23832 5.4961 9.62834 5.67616 9.90923 5.98011C10.1891 6.28301 10.3375 6.68456 10.3217 7.09668C10.306 7.5088 10.1274 7.89785 9.82523 8.17851Z" fill="white"/>
</svg>
