<svg width="14" height="14" viewBox="0 0 14 14" fill="none" xmlns="http://www.w3.org/2000/svg">
<g clip-path="url(#clip0_2203_35703)">
<path d="M4.8125 2.40625C4.8125 2.40898 4.81523 2.42266 4.82891 2.44727C4.84531 2.48008 4.88359 2.53203 4.95742 2.59766C4.96836 2.60586 4.9793 2.6168 4.99023 2.625C4.47891 2.63594 3.98125 2.67148 3.50273 2.73711V2.40625C3.50273 1.91406 3.76797 1.52031 4.07969 1.23867C4.39141 0.957031 4.80977 0.732812 5.26914 0.557813C6.19062 0.205078 7.42383 0 8.75 0C10.0762 0 11.3094 0.205078 12.2309 0.555078C12.6902 0.730078 13.1086 0.954297 13.4203 1.23594C13.732 1.51758 14 1.91406 14 2.40625V5.25V8.09375C14 8.58594 13.7348 8.97969 13.423 9.26133C13.1113 9.54297 12.693 9.76719 12.2336 9.94219C11.9711 10.0434 11.684 10.1309 11.3777 10.2047V8.84844C11.5172 8.80742 11.6457 8.76367 11.766 8.71719C12.1379 8.575 12.3949 8.42188 12.5453 8.28789C12.6191 8.22227 12.6574 8.17031 12.6738 8.1375C12.6902 8.10742 12.6902 8.09648 12.6902 8.09648V6.90156C12.5453 6.97266 12.3922 7.03828 12.2336 7.09844C11.9711 7.19961 11.684 7.28711 11.3777 7.36094V6.00469C11.5172 5.96367 11.6457 5.91992 11.766 5.87344C12.1379 5.73125 12.3949 5.57812 12.5453 5.44414C12.6191 5.37852 12.6574 5.32656 12.6738 5.29375C12.6875 5.26914 12.6902 5.25547 12.6902 5.25273V4.05781C12.5453 4.12891 12.3922 4.19453 12.2336 4.25469C11.859 4.39688 11.4297 4.51719 10.9676 4.60742C10.8281 4.40234 10.6668 4.22734 10.5082 4.08516C10.232 3.83633 9.91211 3.63398 9.57852 3.46719C10.4453 3.4043 11.2 3.24297 11.766 3.02695C12.1379 2.88477 12.3949 2.73164 12.5453 2.59766C12.6191 2.53203 12.6574 2.48008 12.6738 2.44727C12.6875 2.42266 12.6902 2.40898 12.6902 2.40625C12.6902 2.40625 12.6902 2.39258 12.6738 2.36523C12.6574 2.33242 12.6191 2.28047 12.5453 2.21484C12.3949 2.07812 12.1379 1.925 11.766 1.78555C11.025 1.50117 9.95859 1.3125 8.75 1.3125C7.54141 1.3125 6.475 1.50117 5.73672 1.78281C5.36484 1.925 5.10781 2.07812 4.95742 2.21211C4.88359 2.27773 4.84531 2.32969 4.82891 2.3625C4.8125 2.39258 4.8125 2.40352 4.8125 2.40352V2.40625ZM1.3125 5.90625C1.3125 5.90898 1.31523 5.92266 1.32891 5.94727C1.34531 5.98008 1.38359 6.03203 1.45742 6.09766C1.60781 6.23438 1.86484 6.3875 2.23672 6.52695C2.975 6.80859 4.04141 6.99727 5.25 6.99727C6.45859 6.99727 7.525 6.80859 8.26328 6.52695C8.63516 6.38477 8.89219 6.23164 9.04258 6.09766C9.11641 6.03203 9.15469 5.98008 9.17109 5.94727C9.18477 5.92266 9.1875 5.90898 9.1875 5.90625C9.1875 5.90625 9.1875 5.89258 9.17109 5.86523C9.15469 5.83242 9.11641 5.78047 9.04258 5.71484C8.89219 5.57812 8.63516 5.425 8.26328 5.28555C7.525 5.00391 6.45859 4.81523 5.25 4.81523C4.04141 4.81523 2.975 5.00391 2.23672 5.28555C1.86484 5.42773 1.60781 5.58086 1.45742 5.71484C1.38359 5.78047 1.34531 5.83242 1.32891 5.86523C1.3125 5.89531 1.3125 5.90625 1.3125 5.90625ZM0 5.90625C0 5.41406 0.265234 5.02031 0.576953 4.73867C0.888672 4.45703 1.30703 4.23281 1.76641 4.05781C2.69062 3.70508 3.92383 3.5 5.25 3.5C6.57617 3.5 7.80937 3.70508 8.73086 4.05508C9.19023 4.23008 9.60859 4.4543 9.92031 4.73594C10.232 5.01758 10.5 5.41406 10.5 5.90625V8.75V11.5938C10.5 12.0859 10.2348 12.4797 9.92305 12.7613C9.61133 13.043 9.19297 13.2672 8.73359 13.4422C7.80937 13.7949 6.57617 14 5.25 14C3.92383 14 2.69062 13.7949 1.76914 13.4449C1.30977 13.2699 0.894141 13.0457 0.579688 12.7641C0.265234 12.4824 0 12.0859 0 11.5938V8.75V5.90625ZM9.1875 8.75V7.55781C9.04258 7.62891 8.88945 7.69453 8.73086 7.75469C7.80937 8.10742 6.57617 8.3125 5.25 8.3125C3.92383 8.3125 2.69062 8.10742 1.76914 7.75742C1.61055 7.69727 1.45742 7.63164 1.3125 7.56055V8.75C1.3125 8.75273 1.31523 8.76641 1.32891 8.79102C1.34531 8.82383 1.38359 8.87578 1.45742 8.94141C1.60781 9.07812 1.86484 9.23125 2.23672 9.3707C2.975 9.65234 4.04141 9.84102 5.25 9.84102C6.45859 9.84102 7.525 9.65234 8.26328 9.3707C8.63516 9.22852 8.89219 9.07539 9.04258 8.94141C9.11641 8.87578 9.15469 8.82383 9.17109 8.79102C9.18477 8.76641 9.1875 8.75273 9.1875 8.75ZM1.76914 10.6012C1.61055 10.541 1.45742 10.4754 1.3125 10.4043V11.5938C1.3125 11.5938 1.3125 11.6074 1.32891 11.6348C1.34531 11.6676 1.38359 11.7195 1.45742 11.7852C1.60781 11.9219 1.86484 12.075 2.23672 12.2145C2.975 12.4961 4.04141 12.6848 5.25 12.6848C6.45859 12.6848 7.525 12.4961 8.26328 12.2145C8.63516 12.0723 8.89219 11.9191 9.04258 11.7852C9.11641 11.7195 9.15469 11.6676 9.17109 11.6348C9.1875 11.6047 9.1875 11.5938 9.1875 11.5938V10.4016C9.04258 10.4727 8.88945 10.5383 8.73086 10.5984C7.80937 10.9512 6.57617 11.1562 5.25 11.1562C3.92383 11.1562 2.69062 10.9512 1.76914 10.6012Z" fill="white"/>
</g>
<defs>
<clipPath id="clip0_2203_35703">
<rect width="14" height="14" fill="white"/>
</clipPath>
</defs>
</svg>
