<svg width="18" height="16" viewBox="0 0 18 16" fill="none" xmlns="http://www.w3.org/2000/svg">
<path d="M1.40625 0.6875C0.938672 0.6875 0.5625 1.06367 0.5625 1.53125V3.21875C0.5625 3.68633 0.938672 4.0625 1.40625 4.0625H3.09375C3.56133 4.0625 3.9375 3.68633 3.9375 3.21875V1.53125C3.9375 1.06367 3.56133 0.6875 3.09375 0.6875H1.40625ZM6.46875 1.53125C6.00117 1.53125 5.625 1.90742 5.625 2.375C5.625 2.84258 6.00117 3.21875 6.46875 3.21875H17.1562C17.6238 3.21875 18 2.84258 18 2.375C18 1.90742 17.6238 1.53125 17.1562 1.53125H6.46875ZM6.46875 7.15625C6.00117 7.15625 5.625 7.53242 5.625 8C5.625 8.46758 6.00117 8.84375 6.46875 8.84375H17.1562C17.6238 8.84375 18 8.46758 18 8C18 7.53242 17.6238 7.15625 17.1562 7.15625H6.46875ZM6.46875 12.7812C6.00117 12.7812 5.625 13.1574 5.625 13.625C5.625 14.0926 6.00117 14.4688 6.46875 14.4688H17.1562C17.6238 14.4688 18 14.0926 18 13.625C18 13.1574 17.6238 12.7812 17.1562 12.7812H6.46875ZM0.5625 7.15625V8.84375C0.5625 9.31133 0.938672 9.6875 1.40625 9.6875H3.09375C3.56133 9.6875 3.9375 9.31133 3.9375 8.84375V7.15625C3.9375 6.68867 3.56133 6.3125 3.09375 6.3125H1.40625C0.938672 6.3125 0.5625 6.68867 0.5625 7.15625ZM1.40625 11.9375C0.938672 11.9375 0.5625 12.3137 0.5625 12.7812V14.4688C0.5625 14.9363 0.938672 15.3125 1.40625 15.3125H3.09375C3.56133 15.3125 3.9375 14.9363 3.9375 14.4688V12.7812C3.9375 12.3137 3.56133 11.9375 3.09375 11.9375H1.40625Z" fill="black"/>
</svg>
