<svg width="56" height="56" viewBox="0 0 56 56" fill="none" xmlns="http://www.w3.org/2000/svg">
<path d="M56 28C56 21.3632 53.6425 14.9421 49.348 9.88199C45.0535 4.82187 39.1012 1.45173 32.5527 0.372603C26.0042 -0.706519 19.2852 0.575549 13.5942 3.99016C7.90314 7.40477 3.61002 12.7299 1.4805 19.0158C-0.649029 25.3017 -0.476491 32.1397 1.96734 38.3102C4.41116 44.4807 8.96738 49.5826 14.8234 52.7058C20.6794 55.8291 27.4544 56.7706 33.9402 55.3626C40.426 53.9546 46.2007 50.2886 50.2346 45.0183L46.8994 42.4656C43.4706 46.9453 38.5621 50.0614 33.0492 51.2582C27.5363 52.455 21.7775 51.6547 16.7999 48.9999C11.8223 46.3452 7.94949 42.0086 5.87224 36.7637C3.79498 31.5187 3.64832 25.7065 5.45842 20.3634C7.26852 15.0204 10.9177 10.4941 15.7551 7.59163C20.5925 4.68922 26.3035 3.59946 31.8698 4.51671C37.436 5.43397 42.4955 8.29859 46.1458 12.5997C49.7961 16.9008 51.8 22.3587 51.8 28H56Z" fill="#2ABA8A"/>
</svg>
