<svg width="21" height="20" viewBox="0 0 21 20" fill="none" xmlns="http://www.w3.org/2000/svg">
<path fill-rule="evenodd" clip-rule="evenodd" d="M6.56234 5.33331C5.51529 5.33331 4.6665 6.1821 4.6665 7.22915V12.7708C4.6665 13.8178 5.51529 14.6666 6.56234 14.6666H14.4373C15.4844 14.6666 16.3332 13.8178 16.3332 12.7708V7.22915C16.3332 6.1821 15.4844 5.33331 14.4373 5.33331H6.56234ZM5.5415 7.22915C5.5415 6.66535 5.99855 6.20831 6.56234 6.20831H14.4373C15.0011 6.20831 15.4582 6.66535 15.4582 7.22915V12.7708C15.4582 13.3346 15.0011 13.7916 14.4373 13.7916H6.56234C5.99855 13.7916 5.5415 13.3346 5.5415 12.7708V7.22915ZM8.91336 9.14265C9.08422 8.9718 9.08422 8.69481 8.91336 8.52395C8.74251 8.3531 8.4655 8.3531 8.29465 8.52395L7.12798 9.69064C6.95713 9.8615 6.95713 10.1385 7.12798 10.3093L8.29465 11.476C8.4655 11.6468 8.74251 11.6468 8.91336 11.476C9.08422 11.3051 9.08422 11.0282 8.91336 10.8573L8.05606 9.99998L8.91336 9.14265ZM12.0863 8.52395C11.9155 8.69481 11.9155 8.9718 12.0863 9.14265L12.9436 9.99998L12.0863 10.8573C11.9155 11.0282 11.9155 11.3051 12.0863 11.476C12.2572 11.6468 12.5342 11.6468 12.705 11.476L13.8717 10.3093C14.0425 10.1385 14.0425 9.8615 13.8717 9.69064L12.705 8.52395C12.5342 8.3531 12.2572 8.3531 12.0863 8.52395ZM11.5038 8.0785C11.5702 7.84617 11.4357 7.60403 11.2033 7.53765C10.9711 7.47126 10.7289 7.60579 10.6625 7.83812L9.49586 11.9215C9.42948 12.1538 9.564 12.3959 9.79634 12.4623C10.0286 12.5287 10.2708 12.3942 10.3371 12.1618L11.5038 8.0785Z" fill="black"/>
</svg>
